name C:\Users\u0101727\Documents\MyRepositories\upper-imu-dc\OpenSim\subject0\MA\ResultsMA\grid_4nodes_9dim\angles_17.mot
datacolumns 10
datarows 33
range 1700.01000000 1700.33000000
endheader 
time	clav_prot	clav_elev	scapula_abduction	scapula_elevation	scapula_upward_rot	scapula_winging	plane_elv	shoulder_elv	axial_rot	
       1700.01000000	        -50.00000000	        -10.00000000	        -21.66666667	        -10.00000000	          0.00000000	          0.00000000	        -30.00000000	         63.33333333	         30.00000000	
       1700.02000000	        -38.33333333	        -10.00000000	        -21.66666667	        -10.00000000	          0.00000000	          0.00000000	        -30.00000000	         63.33333333	         30.00000000	
       1700.03000000	        -26.66666667	        -10.00000000	        -21.66666667	        -10.00000000	          0.00000000	          0.00000000	        -30.00000000	         63.33333333	         30.00000000	
       1700.04000000	        -15.00000000	        -10.00000000	        -21.66666667	        -10.00000000	          0.00000000	          0.00000000	        -30.00000000	         63.33333333	         30.00000000	
       1700.05000000	        -50.00000000	          0.00000000	        -21.66666667	        -10.00000000	          0.00000000	          0.00000000	        -30.00000000	         63.33333333	         30.00000000	
       1700.06000000	        -38.33333333	          0.00000000	        -21.66666667	        -10.00000000	          0.00000000	          0.00000000	        -30.00000000	         63.33333333	         30.00000000	
       1700.07000000	        -26.66666667	          0.00000000	        -21.66666667	        -10.00000000	          0.00000000	          0.00000000	        -30.00000000	         63.33333333	         30.00000000	
       1700.08000000	        -15.00000000	          0.00000000	        -21.66666667	        -10.00000000	          0.00000000	          0.00000000	        -30.00000000	         63.33333333	         30.00000000	
       1700.09000000	        -50.00000000	         10.00000000	        -21.66666667	        -10.00000000	          0.00000000	          0.00000000	        -30.00000000	         63.33333333	         30.00000000	
       1700.10000000	        -38.33333333	         10.00000000	        -21.66666667	        -10.00000000	          0.00000000	          0.00000000	        -30.00000000	         63.33333333	         30.00000000	
       1700.11000000	        -26.66666667	         10.00000000	        -21.66666667	        -10.00000000	          0.00000000	          0.00000000	        -30.00000000	         63.33333333	         30.00000000	
       1700.12000000	        -15.00000000	         10.00000000	        -21.66666667	        -10.00000000	          0.00000000	          0.00000000	        -30.00000000	         63.33333333	         30.00000000	
       1700.13000000	        -50.00000000	         20.00000000	        -21.66666667	        -10.00000000	          0.00000000	          0.00000000	        -30.00000000	         63.33333333	         30.00000000	
       1700.14000000	        -38.33333333	         20.00000000	        -21.66666667	        -10.00000000	          0.00000000	          0.00000000	        -30.00000000	         63.33333333	         30.00000000	
       1700.15000000	        -26.66666667	         20.00000000	        -21.66666667	        -10.00000000	          0.00000000	          0.00000000	        -30.00000000	         63.33333333	         30.00000000	
       1700.16000000	        -15.00000000	         20.00000000	        -21.66666667	        -10.00000000	          0.00000000	          0.00000000	        -30.00000000	         63.33333333	         30.00000000	
       1700.17000000	        -50.00000000	        -10.00000000	         -3.33333333	        -10.00000000	          0.00000000	          0.00000000	        -30.00000000	         63.33333333	         30.00000000	
       1700.18000000	        -38.33333333	        -10.00000000	         -3.33333333	        -10.00000000	          0.00000000	          0.00000000	        -30.00000000	         63.33333333	         30.00000000	
       1700.19000000	        -26.66666667	        -10.00000000	         -3.33333333	        -10.00000000	          0.00000000	          0.00000000	        -30.00000000	         63.33333333	         30.00000000	
       1700.20000000	        -15.00000000	        -10.00000000	         -3.33333333	        -10.00000000	          0.00000000	          0.00000000	        -30.00000000	         63.33333333	         30.00000000	
       1700.21000000	        -50.00000000	          0.00000000	         -3.33333333	        -10.00000000	          0.00000000	          0.00000000	        -30.00000000	         63.33333333	         30.00000000	
       1700.22000000	        -38.33333333	          0.00000000	         -3.33333333	        -10.00000000	          0.00000000	          0.00000000	        -30.00000000	         63.33333333	         30.00000000	
       1700.23000000	        -26.66666667	          0.00000000	         -3.33333333	        -10.00000000	          0.00000000	          0.00000000	        -30.00000000	         63.33333333	         30.00000000	
       1700.24000000	        -15.00000000	          0.00000000	         -3.33333333	        -10.00000000	          0.00000000	          0.00000000	        -30.00000000	         63.33333333	         30.00000000	
       1700.25000000	        -50.00000000	         10.00000000	         -3.33333333	        -10.00000000	          0.00000000	          0.00000000	        -30.00000000	         63.33333333	         30.00000000	
       1700.26000000	        -38.33333333	         10.00000000	         -3.33333333	        -10.00000000	          0.00000000	          0.00000000	        -30.00000000	         63.33333333	         30.00000000	
       1700.27000000	        -26.66666667	         10.00000000	         -3.33333333	        -10.00000000	          0.00000000	          0.00000000	        -30.00000000	         63.33333333	         30.00000000	
       1700.28000000	        -15.00000000	         10.00000000	         -3.33333333	        -10.00000000	          0.00000000	          0.00000000	        -30.00000000	         63.33333333	         30.00000000	
       1700.29000000	        -50.00000000	         20.00000000	         -3.33333333	        -10.00000000	          0.00000000	          0.00000000	        -30.00000000	         63.33333333	         30.00000000	
       1700.30000000	        -38.33333333	         20.00000000	         -3.33333333	        -10.00000000	          0.00000000	          0.00000000	        -30.00000000	         63.33333333	         30.00000000	
       1700.31000000	        -26.66666667	         20.00000000	         -3.33333333	        -10.00000000	          0.00000000	          0.00000000	        -30.00000000	         63.33333333	         30.00000000	
       1700.32000000	        -15.00000000	         20.00000000	         -3.33333333	        -10.00000000	          0.00000000	          0.00000000	        -30.00000000	         63.33333333	         30.00000000	
       1700.33000000	        -50.00000000	        -10.00000000	         15.00000000	        -10.00000000	          0.00000000	          0.00000000	        -30.00000000	         63.33333333	         30.00000000	
